<?xml version="1.0" standalone="no"?><!DOCTYPE svg PUBLIC "-//W3C//DTD SVG 1.1//EN" "http://www.w3.org/Graphics/SVG/1.1/DTD/svg11.dtd"><svg t="1579161515630" class="icon" viewBox="0 0 1024 1024" version="1.1" xmlns="http://www.w3.org/2000/svg" p-id="2095" xmlns:xlink="http://www.w3.org/1999/xlink" width="200" height="200"><defs><style type="text/css"></style></defs><path d="M586.335009 265.376043c-49.29266 49.29266-50.452065 128.060631-2.586918 175.925778 47.867194 47.867194 126.633119 46.705742 175.925778-2.586918 49.296753-49.296753 50.452065-128.056538 2.584871-175.923732C714.39257 214.926024 635.630738 216.07929 586.335009 265.376043zM716.338898 395.379932c-24.645306 24.645306-64.029292 25.224498-87.961354 1.292436-23.932062-23.932062-23.352871-63.317071 1.292436-87.961354 24.645306-24.645306 64.029292-25.224498 87.961354-1.292436C741.563396 331.35064 740.984205 370.735649 716.338898 395.379932z" p-id="2096"></path><path d="M905.175731 61.174268l-402.085658 5.903453c-22.75833 0.335644-30.648021 8.801457-45.814442 24.616654l-0.300852-0.300852L99.961666 448.40766c-49.294706 49.294706-50.454112 128.058584-2.586918 175.925778l303.343773 303.343773c47.865147 47.865147 126.629026 46.705742 175.923732-2.588965l334.701968-334.701968c25.858948-25.858948 44.058448-38.802748 44.527123-70.527286l5.903453-402.085658C962.242448 86.048795 936.902316 60.708664 905.175731 61.174268zM898.849652 491.980038c-0.233314 15.865339-0.802272 29.957289-16.521279 45.677319L533.679765 886.305965c-24.647353 24.647353-63.229067 23.932062-87.162152 0L141.450592 581.237921c-23.932062-23.932062-22.801309-64.853054 1.843998-89.49836l346.80461-346.3124c14.323217-14.323217 25.004487-21.095457 40.87085-21.328771l344.647481-5.064342c15.863293-0.23536 28.532847 12.434194 28.299533 28.299533L898.849652 491.980038z" p-id="2097"></path></svg>